<svg xmlns="http://www.w3.org/2000/svg" xmlns:xlink="http://www.w3.org/1999/xlink" width="1001" zoomAndPan="magnify" viewBox="0 0 750.75 1124.99995" height="1500" preserveAspectRatio="xMidYMid meet" version="1.0"><defs><clipPath id="491622c27c"><path d="M 206.523438 644.671875 L 270.859375 644.671875 L 270.859375 731.195312 L 206.523438 731.195312 Z M 206.523438 644.671875 " clip-rule="nonzero"/></clipPath><clipPath id="36219d21d2"><path d="M 0.523438 0.671875 L 64.859375 0.671875 L 64.859375 87.195312 L 0.523438 87.195312 Z M 0.523438 0.671875 " clip-rule="nonzero"/></clipPath><clipPath id="d03217e619"><rect x="0" width="65" y="0" height="88"/></clipPath></defs><g clip-path="url(#491622c27c)"><g transform="matrix(1, 0, 0, 1, 206, 644)"><g clip-path="url(#d03217e619)"><g clip-path="url(#36219d21d2)"><path fill="#7d8fa2" d="M 0.523438 0.671875 L 64.859375 0.671875 L 64.859375 87.125 L 0.523438 87.125 Z M 0.523438 0.671875 " fill-opacity="1" fill-rule="nonzero"/></g></g></g></g><path fill="#ffffff" d="M 567.714844 520.085938 L 567.714844 105.714844 L 747.167969 105.714844 L 747.167969 624.492188 L 29.363281 1035.597656 L 29.363281 830.042969 Z M 567.714844 520.085938 " fill-opacity="1" fill-rule="evenodd"/><path fill="#ffffff" d="M 179.449219 520.085938 L 179.449219 105.714844 L 0 105.714844 L 0 624.492188 L 717.800781 1035.597656 L 717.800781 830.042969 Z M 179.449219 520.085938 " fill-opacity="1" fill-rule="evenodd"/></svg>