<svg xmlns="http://www.w3.org/2000/svg" xmlns:xlink="http://www.w3.org/1999/xlink" width="1651" zoomAndPan="magnify" viewBox="0 0 1238.25 898.499972" height="1198" preserveAspectRatio="xMidYMid meet" version="1.0"><defs><g/><clipPath id="ddca8dedf9"><path d="M 352.808594 503.496094 L 364.238281 503.496094 L 364.238281 578.050781 L 352.808594 578.050781 Z M 352.808594 503.496094 " clip-rule="nonzero"/></clipPath><clipPath id="8230d1bdea"><path d="M 0.808594 0.496094 L 12.238281 0.496094 L 12.238281 75.050781 L 0.808594 75.050781 Z M 0.808594 0.496094 " clip-rule="nonzero"/></clipPath><clipPath id="89bd49f743"><rect x="0" width="13" y="0" height="76"/></clipPath><clipPath id="721086dc12"><rect x="0" width="924" y="0" height="566"/></clipPath></defs><g clip-path="url(#ddca8dedf9)"><g transform="matrix(1, 0, 0, 1, 352, 503)"><g clip-path="url(#89bd49f743)"><g clip-path="url(#8230d1bdea)"><path fill="#004899" d="M 0.808594 0.496094 L 12.238281 0.496094 L 12.238281 75.0625 L 0.808594 75.0625 Z M 0.808594 0.496094 " fill-opacity="1" fill-rule="nonzero"/></g></g></g></g><g transform="matrix(1, 0, 0, 1, 168, 151)"><g clip-path="url(#721086dc12)"><g fill="#ffffff" fill-opacity="1"><g transform="translate(0.976722, 416.641045)"><g><path d="M 113.285156 0 L 194.679688 0 L 307.015625 -333.195312 L 235.140625 -333.195312 L 154.222656 -77.109375 L 72.828125 -333.195312 L 1.429688 -333.195312 Z M 113.285156 0 "/></g></g></g><g fill="#ffffff" fill-opacity="1"><g transform="translate(280.383687, 416.641045)"><g><path d="M 141.371094 6.664062 C 211.339844 6.664062 267.507812 -48.074219 267.507812 -118.996094 C 267.507812 -189.921875 211.339844 -244.660156 141.371094 -244.660156 C 71.398438 -244.660156 15.707031 -189.921875 15.707031 -118.996094 C 15.707031 -48.074219 71.398438 6.664062 141.371094 6.664062 Z M 141.371094 -53.3125 C 105.195312 -53.3125 77.109375 -80.441406 77.109375 -118.996094 C 77.109375 -157.554688 105.195312 -184.683594 141.371094 -184.683594 C 178.019531 -184.683594 206.105469 -157.554688 206.105469 -118.996094 C 206.105469 -80.441406 178.019531 -53.3125 141.371094 -53.3125 Z M 141.371094 -53.3125 "/></g></g></g><g fill="#ffffff" fill-opacity="1"><g transform="translate(563.122576, 416.641045)"><g><path d="M 58.546875 -266.554688 C 79.492188 -266.554688 96.625 -283.691406 96.625 -304.15625 C 96.625 -324.625 79.492188 -342.238281 58.546875 -342.238281 C 38.078125 -342.238281 20.945312 -324.625 20.945312 -304.15625 C 20.945312 -283.691406 38.078125 -266.554688 58.546875 -266.554688 Z M 28.082031 0 L 89.484375 0 L 89.484375 -237.996094 L 28.082031 -237.996094 Z M 28.082031 0 "/></g></g></g><g fill="#ffffff" fill-opacity="1"><g transform="translate(678.788792, 416.641045)"><g><path d="M 84.726562 -170.40625 C 84.726562 -183.257812 97.101562 -189.921875 112.332031 -189.921875 C 129.945312 -189.921875 143.273438 -180.875 150.414062 -165.644531 L 202.773438 -194.203125 C 184.207031 -227.046875 150.890625 -244.660156 112.332031 -244.660156 C 63.308594 -244.660156 21.894531 -217.527344 21.894531 -168.976562 C 21.894531 -85.203125 144.703125 -104.242188 144.703125 -69.496094 C 144.703125 -55.691406 131.375 -49.027344 111.859375 -49.027344 C 88.058594 -49.027344 71.875 -60.449219 65.210938 -79.964844 L 11.898438 -49.980469 C 29.035156 -13.328125 64.257812 6.664062 111.859375 6.664062 C 162.789062 6.664062 207.53125 -18.085938 207.53125 -69.496094 C 207.53125 -157.078125 84.726562 -135.179688 84.726562 -170.40625 Z M 84.726562 -170.40625 "/></g></g></g></g></g></svg>